HIERARCHY
ROOT root
{
	OFFSET 0.000000 0.000000 0.000000
	CHANNELS 6 Xposition Yposition Zposition Zrotation Yrotation Xrotation
	JOINT lhip
	{
		OFFSET 0.058581 -0.082280 -0.017664
		CHANNELS 3 Zrotation Yrotation Xrotation
		JOINT lknee
		{
			OFFSET 0.043451 -0.386469 0.008037
			CHANNELS 3 Zrotation Yrotation Xrotation
			JOINT lankle
			{
				OFFSET -0.014790 -0.426874 -0.037428
				CHANNELS 3 Zrotation Yrotation Xrotation
				JOINT ltoe
				{
					OFFSET 0.041054 -0.060286 0.122042
					CHANNELS 3 Zrotation Yrotation Xrotation
					End Site
					{
						OFFSET 0.000000 0.000000 0.000000
					}
				}
			}
		}
	}
	JOINT rhip
	{
		OFFSET -0.060310 -0.090513 -0.013543
		CHANNELS 3 Zrotation Yrotation Xrotation
		JOINT rknee
		{
			OFFSET -0.043257 -0.383688 -0.004843
			CHANNELS 3 Zrotation Yrotation Xrotation
			JOINT rankle
			{
				OFFSET 0.019056 -0.420046 -0.034562
				CHANNELS 3 Zrotation Yrotation Xrotation
				JOINT rtoe
				{
					OFFSET -0.034840 -0.062106 0.130323
					CHANNELS 3 Zrotation Yrotation Xrotation
					End Site
					{
						OFFSET 0.000000 0.000000 0.000000
					}
				}
			}
		}
	}
	JOINT lowerback
	{
		OFFSET 0.004439 0.124404 -0.038385
		CHANNELS 3 Zrotation Yrotation Xrotation
		JOINT upperback
		{
			OFFSET 0.004488 0.137956 0.026820
			CHANNELS 3 Zrotation Yrotation Xrotation
			JOINT chest
			{
				OFFSET -0.002265 0.056032 0.002855
				CHANNELS 3 Zrotation Yrotation Xrotation
				JOINT lowerneck
				{
					OFFSET -0.013390 0.211636 -0.033468
					CHANNELS 3 Zrotation Yrotation Xrotation
					JOINT upperneck
					{
						OFFSET 0.010113 0.088937 0.050410
						CHANNELS 3 Zrotation Yrotation Xrotation
						End Site
						{
							OFFSET 0.000000 0.000000 0.000000
						}
					}
				}
				JOINT lclavicle
				{
					OFFSET 0.071702 0.114000 -0.018898
					CHANNELS 3 Zrotation Yrotation Xrotation
					JOINT lshoulder
					{
						OFFSET 0.122921 0.045205 -0.019046
						CHANNELS 3 Zrotation Yrotation Xrotation
						JOINT lelbow
						{
							OFFSET 0.255332 -0.015649 -0.022946
							CHANNELS 3 Zrotation Yrotation Xrotation
							JOINT lwrist
							{
								OFFSET 0.265709 0.012698 -0.007375
								CHANNELS 3 Zrotation Yrotation Xrotation
								End Site
								{
									OFFSET 0.000000 0.000000 0.000000
								}
							}
						}
					}
				}
				JOINT rclavicle
				{
					OFFSET -0.082954 0.112472 -0.023707
					CHANNELS 3 Zrotation Yrotation Xrotation
					JOINT rshoulder
					{
						OFFSET -0.113228 0.046853 -0.008472
						CHANNELS 3 Zrotation Yrotation Xrotation
						JOINT relbow
						{
							OFFSET -0.260127 -0.014369 -0.031269
							CHANNELS 3 Zrotation Yrotation Xrotation
							JOINT rwrist
							{
								OFFSET -0.269108 0.006794 -0.006027
								CHANNELS 3 Zrotation Yrotation Xrotation
								End Site
								{
									OFFSET 0.000000 0.000000 0.000000
								}
							}
						}
					}
				}
			}
		}
	}
}
MOTION
Frames: 9
Frame Time: 0.033333
0.370939 0.165493 0.995450 87.966943 0.511539 89.130064 7.953577 4.262929 3.061832 -3.570982 -2.389715 2.503178 0.261300 8.384798 -5.532032 0.000000 -0.000000 0.000000 -6.335583 -4.429028 -0.077247 1.062034 -1.525461 7.086837 4.332386 -6.031418 -7.933300 0.000000 -0.000000 0.000000 -4.210259 4.592872 -0.713984 1.987500 -1.553574 8.847602 0.320790 -0.000324 -3.186933 4.323082 2.005089 3.235014 5.194562 -2.590976 1.710365 -28.632189 -3.902848 0.017055 -53.868985 -7.303219 18.709002 0.882401 -20.558200 10.852691 -5.080357 -13.048605 9.338034 30.841125 3.880011 4.810467 53.430166 2.918792 15.279906 -10.851382 26.970045 -2.293697 1.115057 11.343276 0.759878 
0.370829 0.165558 0.995417 87.961791 0.514111 89.139152 7.949181 4.247704 3.049114 -3.572125 -2.394236 2.509094 0.268011 8.389147 -5.528242 0.000000 -0.000000 0.000000 -6.333368 -4.425082 -0.096076 1.062544 -1.509612 7.093974 4.320553 -6.052591 -7.934697 0.000000 -0.000000 0.000000 -4.195143 4.585979 -0.638911 1.968977 -1.529624 8.786710 0.329029 0.004388 -3.144281 4.325144 1.994865 3.107622 5.154529 -2.576281 1.881193 -28.605557 -3.927860 0.040187 -53.912654 -7.313229 18.654106 0.884307 -20.550036 10.884722 -5.088223 -13.032609 9.354545 30.788214 3.882292 4.826863 53.498403 2.944255 15.278062 -10.888183 26.961018 -2.291373 1.123101 11.313641 0.733903 
0.370613 0.165814 0.995447 87.960868 0.462774 89.164761 7.868886 4.234979 3.025485 -3.571545 -2.411968 2.470565 0.284130 8.410636 -5.522032 0.000000 -0.000000 0.000000 -6.404093 -4.424198 -0.138302 1.063865 -1.496999 7.086571 4.314431 -6.068927 -7.902903 0.000000 -0.000000 0.000000 -4.182255 4.570577 -0.527260 1.924739 -1.492233 8.715983 0.322002 0.019289 -3.131255 4.299759 1.949714 2.929058 5.090497 -2.520174 2.129718 -28.609693 -3.943886 0.051218 -53.947964 -7.342857 18.590285 0.899665 -20.509635 10.919826 -5.148382 -13.050785 9.414322 30.755108 3.854597 4.807769 53.576202 2.961203 15.264268 -10.935313 26.946300 -2.317060 1.103867 11.324551 0.720208 
0.370611 0.165965 0.995498 87.985778 0.428274 89.169247 7.816657 4.251104 3.036362 -3.578672 -2.434914 2.427406 0.272068 8.402793 -5.531907 0.000000 -0.000000 0.000000 -6.469299 -4.416554 -0.109467 1.088096 -1.515619 7.035400 4.343544 -6.069099 -7.875417 0.000000 -0.000000 0.000000 -4.183729 4.552250 -0.472741 1.884331 -1.474175 8.728577 0.326348 0.066776 -3.119370 4.267986 1.959826 2.831855 5.095168 -2.547787 2.090846 -28.562032 -3.990048 0.071740 -54.043529 -7.364131 18.532780 0.972483 -20.471350 10.889439 -5.230864 -13.026876 9.468749 30.716690 3.878518 4.816356 53.683824 2.911355 15.238144 -10.997824 27.045850 -2.324358 1.132236 11.218971 0.619911 
0.370553 0.166010 0.995487 88.002025 0.427245 89.182273 7.811323 4.248186 3.008790 -3.580535 -2.436178 2.438817 0.274821 8.388810 -5.540742 0.000000 -0.000000 0.000000 -6.474645 -4.425678 -0.134328 1.093167 -1.525740 7.057102 4.345918 -6.064230 -7.883908 0.000000 -0.000000 0.000000 -4.176247 4.548592 -0.456686 1.878164 -1.492014 8.717634 0.332824 0.067124 -3.100506 4.250889 2.016415 2.844901 5.091358 -2.528882 1.999730 -28.542312 -4.000741 0.073809 -54.084051 -7.371714 18.507098 1.001888 -20.461571 10.890963 -5.272116 -13.037199 9.479647 30.686867 3.893319 4.831936 53.726559 2.936776 15.222765 -11.007284 27.055235 -2.302733 1.157660 11.215014 0.626545 
0.370557 0.166118 0.995501 87.998718 0.413147 89.200755 7.785036 4.234096 2.999082 -3.581532 -2.433891 2.428054 0.307652 8.374903 -5.499653 0.000000 -0.000000 0.000000 -6.503123 -4.427650 -0.162746 1.101517 -1.525283 7.063877 4.354794 -6.049993 -7.861500 0.000000 -0.000000 0.000000 -4.176494 4.545604 -0.458033 1.861576 -1.491180 8.732037 0.329561 0.062291 -3.065502 4.301567 2.071447 2.822407 5.055818 -2.530922 1.927544 -28.510589 -3.928651 0.013792 -54.100568 -7.410334 18.456496 0.970182 -20.450593 10.946204 -5.378157 -13.089302 9.535258 30.672117 3.855442 4.827305 53.768507 3.033907 15.250419 -10.982504 27.026679 -2.297724 1.193781 11.264509 0.683442 
0.370506 0.166195 0.995515 87.975028 0.401831 89.224637 7.758137 4.218054 2.963807 -3.575268 -2.415601 2.450367 0.313034 8.399956 -5.521150 0.000000 -0.000000 0.000000 -6.516352 -4.420411 -0.222664 1.101275 -1.514672 7.101010 4.357661 -6.065884 -7.868744 0.000000 -0.000000 0.000000 -4.176207 4.564664 -0.397973 1.851938 -1.449310 8.671945 0.323559 0.045898 -3.052556 4.325009 2.092008 2.705405 4.984117 -2.575191 2.044785 -28.501067 -3.809578 -0.063987 -54.063151 -7.457417 18.424560 0.873741 -20.476952 11.081068 -5.454710 -13.111951 9.606093 30.711022 3.776189 4.778819 53.760754 3.085169 15.321789 -10.963704 26.997637 -2.286771 1.227802 11.299880 0.708800 
0.370545 0.166265 0.995538 87.969319 0.398263 89.232749 7.751735 4.255818 2.950752 -3.591942 -2.427566 2.469102 0.327876 8.397505 -5.515993 0.000000 -0.000000 0.000000 -6.517691 -4.417784 -0.233847 1.084008 -1.496279 7.109978 4.368694 -6.058752 -7.868472 0.000000 -0.000000 0.000000 -4.162994 4.567122 -0.315331 1.851200 -1.432250 8.574238 0.334549 0.080869 -3.049319 4.249975 2.044264 2.710849 5.038114 -2.562293 2.041149 -28.493452 -3.913371 -0.026897 -54.097091 -7.438408 18.506059 0.947735 -20.368520 10.986798 -5.409908 -13.175315 9.534752 30.718088 3.792444 4.774706 53.782234 2.987076 15.280663 -11.005743 27.094051 -2.283692 1.271096 11.301427 0.681286 
0.370631 0.166313 0.995542 87.967819 0.409026 89.231738 7.763351 4.259193 2.963815 -3.594973 -2.411547 2.461240 0.347515 8.401560 -5.532486 0.000000 -0.000000 0.000000 -6.510699 -4.436011 -0.230973 1.087295 -1.479624 7.116285 4.375761 -6.058689 -7.867687 0.000000 -0.000000 0.000000 -4.144557 4.570642 -0.292881 1.849844 -1.425412 8.555370 0.337794 0.075533 -3.007989 4.257962 2.069345 2.675414 5.008865 -2.528310 2.064080 -28.500533 -3.911841 -0.024807 -54.052510 -7.427606 18.490378 0.946966 -20.425421 10.934221 -5.393058 -13.166361 9.445209 30.721586 3.813414 4.768712 53.772683 2.984291 15.303669 -10.987397 27.170608 -2.272479 1.288014 11.258277 0.687876 
